<?xml version="1.0" encoding="UTF-8"?>
<svg id="Calque_1" data-name="Calque 1" xmlns="http://www.w3.org/2000/svg" viewBox="0 0 646.48 221.85">
  <defs>
    <style>
      .cls-1 {
        fill: #000046;
      }
    </style>
  </defs>
  <g>
    <path class="cls-1" d="M23.14,184.56l5.24,22.59,6.28-22.59h4.07l6.3,22.63,5.24-22.63h4.13l-7.3,27.8h-3.96l-6.42-23.05-6.45,23.05h-3.96l-7.27-27.8h4.09Z"/>
    <path class="cls-1" d="M57.42,184.56h3.46v3.86h-3.46v-3.86ZM57.42,192.18h3.46v20.17h-3.46v-20.17Z"/>
    <path class="cls-1" d="M66.13,192.09h3.24v3.5c.26-.68.91-1.51,1.95-2.49,1.03-.98,2.23-1.47,3.58-1.47.06,0,.17,0,.32.02.15.01.41.04.78.08v3.6c-.2-.04-.39-.06-.56-.08-.17-.01-.36-.02-.56-.02-1.72,0-3.03.55-3.96,1.66-.92,1.1-1.38,2.37-1.38,3.81v11.66h-3.41v-20.27Z"/>
    <path class="cls-1" d="M91.46,192.65c1.34.67,2.36,1.55,3.07,2.62.68,1.02,1.13,2.21,1.35,3.58.2.93.3,2.42.3,4.47h-14.74c.06,2.06.54,3.72,1.45,4.96.9,1.25,2.3,1.87,4.19,1.87,1.76,0,3.17-.59,4.22-1.77.59-.68,1.01-1.48,1.25-2.38h3.35c-.09.74-.38,1.57-.88,2.49-.5.91-1.05,1.66-1.67,2.24-1.03,1.01-2.3,1.69-3.81,2.04-.81.2-1.73.3-2.76.3-2.51,0-4.63-.92-6.38-2.75-1.74-1.84-2.61-4.41-2.61-7.71s.88-5.9,2.63-7.93c1.76-2.03,4.05-3.05,6.88-3.05,1.43,0,2.81.34,4.16,1.01ZM92.68,200.61c-.14-1.48-.46-2.66-.96-3.54-.93-1.64-2.47-2.46-4.63-2.46-1.55,0-2.85.56-3.9,1.69-1.05,1.13-1.61,2.56-1.67,4.31h11.17Z"/>
    <path class="cls-1" d="M111.63,192.71c.6.38,1.29,1.04,2.05,1.99v-10.24h3.27v27.89h-3.07v-2.82c-.79,1.25-1.73,2.15-2.81,2.71-1.08.55-2.32.83-3.71.83-2.25,0-4.2-.95-5.84-2.85-1.65-1.9-2.47-4.42-2.47-7.58,0-2.95.75-5.51,2.25-7.67,1.5-2.16,3.65-3.25,6.44-3.25,1.55,0,2.84.33,3.88.98ZM104.02,207.91c.92,1.46,2.39,2.2,4.41,2.2,1.57,0,2.86-.68,3.87-2.03,1.01-1.36,1.52-3.3,1.52-5.84s-.52-4.46-1.56-5.69c-1.04-1.23-2.33-1.85-3.86-1.85-1.71,0-3.09.66-4.15,1.97-1.06,1.31-1.59,3.24-1.59,5.79,0,2.17.46,3.99,1.37,5.45Z"/>
    <path class="cls-1" d="M139.23,184.56h4.26l10.09,27.8h-4.13l-2.82-8.33h-10.99l-3.01,8.33h-3.86l10.47-27.8ZM145.42,200.97l-4.22-12.28-4.48,12.28h8.71Z"/>
    <path class="cls-1" d="M156.64,192.09h3.24v3.5c.26-.68.91-1.51,1.95-2.49,1.03-.98,2.23-1.47,3.58-1.47.06,0,.17,0,.32.02.15.01.41.04.78.08v3.6c-.2-.04-.39-.06-.56-.08-.17-.01-.36-.02-.56-.02-1.72,0-3.03.55-3.96,1.66-.92,1.1-1.38,2.37-1.38,3.81v11.66h-3.41v-20.27Z"/>
    <path class="cls-1" d="M182.84,193.17c1.43,1.11,2.29,3.02,2.58,5.73h-3.31c-.2-1.25-.66-2.29-1.38-3.11-.72-.83-1.87-1.24-3.46-1.24-2.17,0-3.72,1.06-4.66,3.18-.61,1.37-.91,3.07-.91,5.08s.43,3.74,1.29,5.12c.86,1.39,2.21,2.08,4.05,2.08,1.41,0,2.53-.43,3.36-1.29.83-.86,1.4-2.04,1.71-3.53h3.31c-.38,2.69-1.32,4.65-2.84,5.89-1.51,1.24-3.45,1.86-5.81,1.86-2.65,0-4.76-.97-6.34-2.9-1.58-1.94-2.37-4.36-2.37-7.26,0-3.56.86-6.33,2.59-8.31,1.73-1.98,3.93-2.97,6.6-2.97,2.28,0,4.14.56,5.57,1.67Z"/>
    <path class="cls-1" d="M188.83,184.46h3.41v10.37c.81-1.02,1.53-1.74,2.18-2.16,1.1-.72,2.47-1.08,4.11-1.08,2.94,0,4.93,1.03,5.98,3.08.57,1.12.85,2.68.85,4.67v13h-3.5v-12.77c0-1.49-.19-2.58-.57-3.27-.62-1.11-1.78-1.67-3.48-1.67-1.41,0-2.69.49-3.84,1.46-1.15.97-1.72,2.81-1.72,5.51v10.75h-3.41v-27.89Z"/>
    <path class="cls-1" d="M210.39,184.56h3.46v3.86h-3.46v-3.86ZM210.39,192.18h3.46v20.17h-3.46v-20.17Z"/>
    <path class="cls-1" d="M220.67,192.09l5.41,16.5,5.64-16.5h3.73l-7.63,20.27h-3.63l-7.48-20.27h3.96Z"/>
    <path class="cls-1" d="M250.89,192.65c1.34.67,2.36,1.55,3.07,2.62.68,1.02,1.13,2.21,1.35,3.58.2.93.3,2.42.3,4.47h-14.74c.06,2.06.54,3.72,1.45,4.96.9,1.25,2.3,1.87,4.19,1.87,1.76,0,3.17-.59,4.22-1.77.59-.68,1.01-1.48,1.25-2.38h3.35c-.09.74-.38,1.57-.88,2.49-.5.91-1.05,1.66-1.67,2.24-1.03,1.01-2.3,1.69-3.81,2.04-.81.2-1.73.3-2.76.3-2.51,0-4.63-.92-6.38-2.75-1.74-1.84-2.61-4.41-2.61-7.71s.88-5.9,2.63-7.93c1.76-2.03,4.05-3.05,6.88-3.05,1.43,0,2.81.34,4.16,1.01ZM252.11,200.61c-.14-1.48-.46-2.66-.96-3.54-.93-1.64-2.47-2.46-4.63-2.46-1.55,0-2.85.56-3.9,1.69-1.05,1.13-1.61,2.56-1.67,4.31h11.17Z"/>
    <path class="cls-1" d="M285.38,194.11c1.79,1.74,2.69,4.3,2.69,7.68s-.79,5.96-2.37,8.09c-1.58,2.13-4.03,3.2-7.35,3.2-2.77,0-4.97-.94-6.6-2.83-1.63-1.88-2.44-4.42-2.44-7.59,0-3.4.86-6.11,2.57-8.13,1.72-2.02,4.02-3.03,6.92-3.03,2.59,0,4.79.87,6.58,2.61ZM283.27,207.58c.83-1.71,1.24-3.61,1.24-5.7,0-1.89-.3-3.43-.9-4.61-.95-1.86-2.58-2.8-4.9-2.8-2.06,0-3.56.79-4.49,2.38-.94,1.59-1.4,3.5-1.4,5.75s.47,3.95,1.4,5.39c.94,1.44,2.42,2.15,4.45,2.15,2.23,0,3.76-.85,4.59-2.56Z"/>
    <path class="cls-1" d="M293.84,185.9c.79-1.16,2.33-1.74,4.6-1.74.21,0,.44,0,.66.02.23.01.49.03.78.06v3.1c-.36-.03-.62-.04-.77-.05-.16,0-.31,0-.45,0-1.05,0-1.67.27-1.88.8-.2.54-.31,1.9-.31,4.1h3.41v2.69h-3.41v17.49h-3.37v-17.49h-2.82v-2.69h2.82v-3.18c.05-1.41.3-2.45.74-3.1Z"/>
    <path class="cls-1" d="M316.45,184.56l7.99,23.67,7.89-23.67h4.22l-10.14,27.8h-3.99l-10.12-27.8h4.16Z"/>
    <path class="cls-1" d="M338.96,184.56h3.46v3.86h-3.46v-3.86ZM338.96,192.18h3.46v20.17h-3.46v-20.17Z"/>
    <path class="cls-1" d="M349.59,206c.1,1.14.39,2.01.87,2.61.88,1.1,2.4,1.65,4.56,1.65,1.29,0,2.42-.27,3.4-.82.98-.55,1.47-1.4,1.47-2.55,0-.87-.39-1.53-1.17-1.99-.5-.28-1.49-.6-2.96-.97l-2.75-.68c-1.76-.43-3.05-.91-3.88-1.44-1.49-.92-2.23-2.2-2.23-3.82,0-1.92.7-3.47,2.1-4.66,1.4-1.19,3.28-1.78,5.65-1.78,3.09,0,5.33.9,6.69,2.69.86,1.14,1.27,2.36,1.25,3.67h-3.22c-.06-.77-.34-1.46-.83-2.09-.8-.89-2.19-1.34-4.17-1.34-1.32,0-2.31.25-2.99.74-.68.49-1.02,1.14-1.02,1.94,0,.88.45,1.58,1.34,2.11.51.31,1.27.59,2.27.83l2.29.55c2.49.59,4.16,1.17,5.01,1.72,1.32.87,1.99,2.24,1.99,4.11s-.69,3.36-2.08,4.67c-1.39,1.31-3.5,1.97-6.33,1.97-3.05,0-5.21-.68-6.49-2.05-1.27-1.37-1.95-3.06-2.04-5.08h3.27Z"/>
    <path class="cls-1" d="M370.35,192.09v13.46c0,1.03.16,1.88.48,2.54.59,1.21,1.69,1.82,3.3,1.82,2.31,0,3.88-1.06,4.72-3.18.45-1.14.68-2.69.68-4.67v-9.95h3.41v20.27h-3.22l.04-2.99c-.43.77-.97,1.42-1.62,1.95-1.28,1.06-2.82,1.59-4.64,1.59-2.84,0-4.77-.97-5.79-2.9-.56-1.03-.84-2.42-.84-4.14v-13.78h3.48Z"/>
    <path class="cls-1" d="M399.36,200.09c.78-.1,1.31-.43,1.57-.98.15-.3.23-.74.23-1.31,0-1.17-.41-2.01-1.24-2.54-.82-.53-2.01-.79-3.54-.79-1.78,0-3.03.48-3.78,1.45-.42.53-.69,1.33-.81,2.38h-3.18c.06-2.51.87-4.25,2.43-5.23s3.36-1.47,5.42-1.47c2.38,0,4.32.45,5.8,1.36,1.47.91,2.21,2.32,2.21,4.24v11.68c0,.35.07.64.22.85.14.21.45.32.92.32.15,0,.32,0,.51-.03.19-.02.39-.05.61-.08v2.52c-.53.15-.93.25-1.21.28s-.66.06-1.14.06c-1.17,0-2.02-.42-2.55-1.25-.28-.44-.47-1.07-.59-1.87-.69.91-1.69,1.7-2.99,2.37-1.3.67-2.73,1-4.3,1-1.88,0-3.42-.57-4.61-1.71-1.19-1.14-1.79-2.57-1.79-4.28,0-1.88.59-3.33,1.76-4.37,1.17-1.03,2.71-1.67,4.62-1.91l5.43-.68ZM392.19,209.29c.72.57,1.57.85,2.55.85,1.2,0,2.36-.28,3.48-.83,1.89-.92,2.84-2.42,2.84-4.52v-2.74c-.42.27-.95.49-1.61.66-.65.18-1.3.3-1.93.38l-2.06.26c-1.23.16-2.16.42-2.78.77-1.05.59-1.58,1.54-1.58,2.83,0,.98.36,1.76,1.08,2.32Z"/>
    <path class="cls-1" d="M410.15,184.56h3.41v27.8h-3.41v-27.8Z"/>
    <path class="cls-1" d="M430.25,184.56h20.17v3.41h-16.5v8.44h15.25v3.22h-15.25v9.42h16.79v3.31h-20.46v-27.8Z"/>
    <path class="cls-1" d="M453.35,192.09h4.41l4.66,7.13,4.71-7.13,4.14.09-6.83,9.78,7.13,10.39h-4.35l-5.03-7.61-4.88,7.61h-4.31l7.13-10.39-6.77-9.88Z"/>
    <path class="cls-1" d="M474.38,192.18h3.33v2.69c.68-.92,1.43-1.63,2.24-2.14,1.15-.76,2.5-1.14,4.06-1.14,2.3,0,4.26.88,5.86,2.64,1.61,1.76,2.41,4.27,2.41,7.54,0,4.42-1.16,7.57-3.48,9.46-1.47,1.2-3.18,1.8-5.13,1.8-1.53,0-2.82-.33-3.86-1-.61-.38-1.29-1.03-2.03-1.95v10.35h-3.41v-28.25ZM487.19,208.07c1.06-1.33,1.59-3.32,1.59-5.97,0-1.61-.23-3-.7-4.16-.89-2.23-2.51-3.35-4.86-3.35s-3.99,1.18-4.86,3.54c-.47,1.26-.7,2.86-.7,4.81,0,1.56.23,2.9.7,3.99.89,2.09,2.51,3.14,4.86,3.14,1.59,0,2.92-.67,3.98-2Z"/>
    <path class="cls-1" d="M496.31,184.56h3.41v27.8h-3.41v-27.8Z"/>
    <path class="cls-1" d="M519.51,194.11c1.79,1.74,2.69,4.3,2.69,7.68s-.79,5.96-2.37,8.09c-1.58,2.13-4.03,3.2-7.35,3.2-2.77,0-4.97-.94-6.6-2.83-1.63-1.88-2.44-4.42-2.44-7.59,0-3.4.86-6.11,2.57-8.13,1.72-2.02,4.02-3.03,6.92-3.03,2.59,0,4.79.87,6.58,2.61ZM517.4,207.58c.83-1.71,1.24-3.61,1.24-5.7,0-1.89-.3-3.43-.9-4.61-.95-1.86-2.58-2.8-4.9-2.8-2.06,0-3.56.79-4.49,2.38-.94,1.59-1.4,3.5-1.4,5.75s.47,3.95,1.4,5.39c.94,1.44,2.42,2.15,4.45,2.15,2.23,0,3.76-.85,4.59-2.56Z"/>
    <path class="cls-1" d="M526.48,192.09h3.24v3.5c.26-.68.91-1.51,1.95-2.49,1.03-.98,2.23-1.47,3.58-1.47.06,0,.17,0,.32.02.15.01.41.04.78.08v3.6c-.2-.04-.39-.06-.56-.08-.17-.01-.36-.02-.56-.02-1.72,0-3.03.55-3.96,1.66-.92,1.1-1.38,2.37-1.38,3.81v11.66h-3.41v-20.27Z"/>
    <path class="cls-1" d="M550.15,200.09c.78-.1,1.31-.43,1.57-.98.15-.3.23-.74.23-1.31,0-1.17-.41-2.01-1.24-2.54-.82-.53-2.01-.79-3.54-.79-1.78,0-3.03.48-3.78,1.45-.42.53-.69,1.33-.81,2.38h-3.18c.06-2.51.87-4.25,2.43-5.23s3.36-1.47,5.42-1.47c2.38,0,4.32.45,5.8,1.36,1.47.91,2.21,2.32,2.21,4.24v11.68c0,.35.07.64.22.85.14.21.45.32.92.32.15,0,.32,0,.51-.03.19-.02.39-.05.61-.08v2.52c-.53.15-.93.25-1.21.28s-.66.06-1.14.06c-1.17,0-2.02-.42-2.55-1.25-.28-.44-.47-1.07-.59-1.87-.69.91-1.69,1.7-2.99,2.37-1.3.67-2.73,1-4.3,1-1.88,0-3.42-.57-4.61-1.71-1.19-1.14-1.79-2.57-1.79-4.28,0-1.88.59-3.33,1.76-4.37,1.17-1.03,2.71-1.67,4.62-1.91l5.43-.68ZM542.98,209.29c.72.57,1.57.85,2.55.85,1.2,0,2.36-.28,3.48-.83,1.89-.92,2.84-2.42,2.84-4.52v-2.74c-.42.27-.95.49-1.61.66-.65.18-1.3.3-1.93.38l-2.06.26c-1.23.16-2.16.42-2.78.77-1.05.59-1.58,1.54-1.58,2.83,0,.98.36,1.76,1.08,2.32Z"/>
    <path class="cls-1" d="M561.52,186.43h3.44v5.66h3.24v2.78h-3.24v13.23c0,.71.24,1.18.72,1.42.26.14.71.21,1.32.21.16,0,.34,0,.53-.01s.41-.03.66-.06v2.71c-.39.11-.8.2-1.22.25-.42.05-.88.08-1.37.08-1.59,0-2.67-.41-3.24-1.22-.57-.81-.85-1.87-.85-3.17v-13.42h-2.74v-2.78h2.74v-5.66Z"/>
    <path class="cls-1" d="M571.61,184.56h3.46v3.86h-3.46v-3.86ZM571.61,192.18h3.46v20.17h-3.46v-20.17Z"/>
    <path class="cls-1" d="M594.91,194.11c1.79,1.74,2.69,4.3,2.69,7.68s-.79,5.96-2.37,8.09c-1.58,2.13-4.03,3.2-7.35,3.2-2.77,0-4.97-.94-6.6-2.83-1.63-1.88-2.44-4.42-2.44-7.59,0-3.4.86-6.11,2.57-8.13,1.72-2.02,4.02-3.03,6.92-3.03,2.59,0,4.79.87,6.58,2.61ZM592.79,207.58c.83-1.71,1.24-3.61,1.24-5.7,0-1.89-.3-3.43-.9-4.61-.95-1.86-2.58-2.8-4.9-2.8-2.06,0-3.56.79-4.49,2.38-.94,1.59-1.4,3.5-1.4,5.75s.47,3.95,1.4,5.39c.94,1.44,2.42,2.15,4.45,2.15,2.23,0,3.76-.85,4.59-2.56Z"/>
    <path class="cls-1" d="M601.78,192.09h3.24v2.88c.96-1.19,1.97-2.04,3.05-2.55,1.07-.52,2.26-.78,3.58-.78,2.88,0,4.82,1,5.83,3.01.55,1.1.83,2.67.83,4.71v13h-3.46v-12.77c0-1.24-.18-2.23-.55-2.99-.61-1.26-1.7-1.89-3.29-1.89-.81,0-1.47.08-1.99.25-.93.28-1.75.83-2.46,1.67-.57.67-.94,1.36-1.11,2.07-.17.71-.26,1.73-.26,3.06v10.62h-3.41v-20.27Z"/>
    <path class="cls-1" d="M625.36,206c.1,1.14.39,2.01.87,2.61.88,1.1,2.4,1.65,4.56,1.65,1.29,0,2.42-.27,3.4-.82.98-.55,1.47-1.4,1.47-2.55,0-.87-.39-1.53-1.17-1.99-.5-.28-1.49-.6-2.96-.97l-2.75-.68c-1.76-.43-3.05-.91-3.88-1.44-1.49-.92-2.23-2.2-2.23-3.82,0-1.92.7-3.47,2.1-4.66,1.4-1.19,3.28-1.78,5.65-1.78,3.09,0,5.33.9,6.69,2.69.86,1.14,1.27,2.36,1.25,3.67h-3.22c-.06-.77-.34-1.46-.83-2.09-.8-.89-2.19-1.34-4.17-1.34-1.32,0-2.31.25-2.99.74-.68.49-1.02,1.14-1.02,1.94,0,.88.45,1.58,1.34,2.11.51.31,1.27.59,2.27.83l2.29.55c2.49.59,4.16,1.17,5.01,1.72,1.32.87,1.99,2.24,1.99,4.11s-.69,3.36-2.08,4.67c-1.39,1.31-3.5,1.97-6.33,1.97-3.05,0-5.21-.68-6.49-2.05-1.27-1.37-1.95-3.06-2.04-5.08h3.27Z"/>
  </g>
  <g>
    <path class="cls-1" d="M133.61,35.47c1.2,8.54-4.24,23.2-13.34,30.64-6.48,5.3-8.59,7.77-12.27,13.96,0,0-.02.02-.02.03l-32.2,62.65h-12.49L0,3.69h45.41l28.09,65.56L106.42,3.4h12.77l12.52,25.04c.94,1.89,1.55,3.92,1.79,6.02.04.31.07.65.1.99h0Z"/>
    <path class="cls-1" d="M223.34,3.69l-62.72,139.05h-12.2l-25.83-50.23c-.13-4.85,2.32-11.32,10.22-18.11,8.9-7.66,11.54-15.12,10.91-21.92l8.39,16.77L180.78,3.69h42.56Z"/>
    <path class="cls-1" d="M363.25,70.38v70.95h-43.71v-68.96c0-19.58-13.05-30.08-28.37-30.08-17.03,0-27.82,12.77-27.82,28.09,0,17.32,13.62,29.23,32.92,29.23h12.77l-11.35,41.72h-4.82c-42.57,0-73.79-29.52-73.79-70.95S250.3,0,291.74,0s71.51,28.38,71.51,70.38Z"/>
    <polygon class="cls-1" points="513.66 3.4 441.01 141.89 429.37 141.89 357.58 3.4 404.97 3.4 436.19 68.4 468.25 3.4 513.66 3.4"/>
    <path class="cls-1" d="M646.48,99.61l-11.35,41.72h-50.8c-43.7,0-77.47-29.8-77.47-71.8,0-39.44,30.08-69.53,70.38-69.53s67.54,29.23,67.54,59.03c0,8.23-2.55,17.32-7.67,26.39h-43.7c3.69-6.24,7.09-13.05,7.09-20.43,0-13.33-10.79-22.7-23.27-22.7-15.04,0-26.11,11.35-26.11,26.68,0,16.74,13.05,30.65,37.74,30.65h57.61Z"/>
  </g>
</svg>